<svg width="15" height="15" viewBox="0 0 15 15" fill="none" xmlns="http://www.w3.org/2000/svg">
<g clip-path="url(#clip0_4939_56407)">
<path d="M13.9283 3.5871C13.6549 3.05241 13.2597 2.58944 12.7746 2.23552C12.2895 1.8816 11.728 1.64663 11.1354 1.54956C10.5428 1.4525 9.93563 1.49605 9.36294 1.67671C8.79025 1.85737 8.26803 2.17008 7.83838 2.58962L7.33673 3.04461L6.85257 2.60129C6.42258 2.1751 5.8972 1.85755 5.31998 1.67495C4.74276 1.49235 4.13034 1.44996 3.53347 1.55131C2.93996 1.64345 2.37713 1.87634 1.89204 2.23052C1.40696 2.58469 1.01371 3.04985 0.745188 3.5871C0.383866 4.29301 0.257474 5.09587 0.384439 5.87865C0.511404 6.66142 0.885087 7.38318 1.45101 7.93868L6.91673 13.5736C6.97115 13.63 7.03639 13.6749 7.10855 13.7056C7.18071 13.7363 7.25832 13.7521 7.33673 13.7521C7.41514 13.7521 7.49274 13.7363 7.5649 13.7056C7.63706 13.6749 7.7023 13.63 7.75672 13.5736L13.2166 7.95035C13.7845 7.39368 14.1597 6.67022 14.2877 5.88539C14.4157 5.10056 14.2898 4.29536 13.9283 3.5871Z" fill="#CB3CFF"/>
</g>
<defs>
<clipPath id="clip0_4939_56407">
<rect width="14" height="14" fill="white" transform="translate(0.336426 0.625)"/>
</clipPath>
</defs>
</svg>
