<svg width="14" height="15" viewBox="0 0 14 15" fill="none" xmlns="http://www.w3.org/2000/svg">
<path d="M10.2989 5.48845C10.2989 5.48845 9.17241 9.02868 9.09196 9.35052C9.09196 9.02868 8.2069 2.67236 8.2069 2.67236C6.27586 2.67236 5.22989 4.04018 4.74713 5.48845C4.74713 5.48845 3.43604 8.24598 3.35558 8.56782C3.27512 8.32644 3.05747 5.56891 3.05747 5.56891C2.89655 3.7988 1.28736 2.67236 0 2.67236L1.6092 12.3275C3.62069 12.3275 4.74713 10.9597 5.31034 9.51144C5.31034 9.51144 6.51724 6.37351 6.5977 6.21259C6.5977 6.37351 7.48276 12.3275 7.48276 12.3275C9.49425 12.3275 10.6207 11.0402 11.1839 9.67236L14 2.67236C11.908 2.67236 10.8621 4.04018 10.2989 5.48845Z" fill="#AEB9E1"/>
</svg>
